<svg width="17" height="17" viewBox="0 0 17 17" fill="none" xmlns="http://www.w3.org/2000/svg">
<path d="M8.5 0C3.8131 0 0 3.8131 0 8.5C0 13.1869 3.8131 17 8.5 17C13.1869 17 17 13.1869 17 8.5C17 3.8131 13.1869 0 8.5 0ZM12.9095 8.73403L6.67618 12.984C6.6283 13.0166 6.57248 13.0333 6.51667 13.0333C6.47133 13.0333 6.42572 13.0226 6.38435 13.0005C6.29142 12.9514 6.23333 12.8551 6.23333 12.75V4.25C6.23333 4.14488 6.29142 4.04855 6.38435 3.99953C6.47728 3.95023 6.58948 3.95703 6.67647 4.01597L12.9098 8.26597C12.9869 8.31867 13.0333 8.40622 13.0333 8.5C13.0333 8.59378 12.9869 8.68133 12.9095 8.73403Z" fill="white"/>
</svg>
