<svg width="94" height="31" viewBox="0 0 94 31" fill="none" xmlns="http://www.w3.org/2000/svg">
<path d="M91.2346 18.8643L93.8508 20.6084C93.0017 21.8591 90.9707 24.0049 87.4595 24.0049C83.0991 24.0049 79.8518 20.6313 79.8518 16.3398C79.8518 11.7729 83.1335 8.6748 87.0923 8.6748C91.074 8.6748 93.0247 11.8418 93.6558 13.5515L94 14.4236L83.7417 18.6692C84.522 20.2068 85.7383 20.9871 87.4595 20.9871C89.1807 20.9871 90.374 20.1379 91.2346 18.8643ZM83.1909 16.0989L90.0413 13.2532C89.6626 12.3008 88.5381 11.6238 87.1956 11.6238C85.4858 11.6238 83.1106 13.1384 83.1909 16.0989Z" fill="#FF302F"/>
<path d="M74.9065 0.860596H78.2112V23.3049H74.9065V0.860596Z" fill="#20B15A"/>
<path d="M69.6968 9.27148H72.8867V22.9033C72.8867 28.5603 69.5476 30.8896 65.6003 30.8896C61.8826 30.8896 59.645 28.3882 58.8074 26.3572L61.7334 25.1409C62.2612 26.3916 63.5349 27.8718 65.6003 27.8718C68.1362 27.8718 69.6968 26.2998 69.6968 23.3623V22.2607H69.582C68.8247 23.1787 67.3789 24.0049 65.543 24.0049C61.7104 24.0049 58.1992 20.6658 58.1992 16.3628C58.1992 12.0369 61.7104 8.66333 65.543 8.66333C67.3674 8.66333 68.8247 9.47803 69.582 10.373H69.6968V9.27148ZM69.9263 16.3628C69.9263 13.6548 68.1248 11.6812 65.8298 11.6812C63.512 11.6812 61.5613 13.6548 61.5613 16.3628C61.5613 19.0364 63.512 20.9756 65.8298 20.9756C68.1248 20.9871 69.9263 19.0364 69.9263 16.3628Z" fill="#3686F7"/>
<path d="M40.0579 16.3054C40.0579 20.7231 36.6155 23.9705 32.3928 23.9705C28.1702 23.9705 24.7278 20.7117 24.7278 16.3054C24.7278 11.8647 28.1702 8.62891 32.3928 8.62891C36.6155 8.62891 40.0579 11.8647 40.0579 16.3054ZM36.7073 16.3054C36.7073 13.5515 34.7107 11.6582 32.3928 11.6582C30.075 11.6582 28.0784 13.5515 28.0784 16.3054C28.0784 19.0364 30.075 20.9526 32.3928 20.9526C34.7107 20.9526 36.7073 19.0364 36.7073 16.3054Z" fill="#FF302F"/>
<path d="M56.7991 16.3398C56.7991 20.7576 53.3567 24.0049 49.134 24.0049C44.9114 24.0049 41.469 20.7576 41.469 16.3398C41.469 11.8992 44.9114 8.6748 49.134 8.6748C53.3567 8.6748 56.7991 11.8877 56.7991 16.3398ZM53.437 16.3398C53.437 13.5859 51.4404 11.6926 49.1226 11.6926C46.8047 11.6926 44.8081 13.5859 44.8081 16.3398C44.8081 19.0708 46.8047 20.9871 49.1226 20.9871C51.4519 20.9871 53.437 19.0593 53.437 16.3398Z" fill="#FFBA40"/>
<path d="M12.1287 20.6428C7.3208 20.6428 3.55713 16.7644 3.55713 11.9565C3.55713 7.14868 7.3208 3.27026 12.1287 3.27026C14.7219 3.27026 16.6152 4.2915 18.0151 5.59961L20.3215 3.29321C18.3708 1.42285 15.7661 0 12.1287 0C5.54224 0 0 5.37012 0 11.9565C0 18.543 5.54224 23.9131 12.1287 23.9131C15.6858 23.9131 18.3708 22.7427 20.4707 20.5625C22.6279 18.4053 23.2935 15.376 23.2935 12.9204C23.2935 12.1516 23.2017 11.3599 23.0984 10.7747H12.1287V13.9646H19.9429C19.7134 15.9612 19.0823 17.3267 18.1528 18.2561C17.0283 19.3921 15.2498 20.6428 12.1287 20.6428Z" fill="#3686F7"/>
</svg>
