<svg width="101" height="30" viewBox="0 0 101 30" fill="none" xmlns="http://www.w3.org/2000/svg">
<path d="M0.015625 5.63672H3.50254V13.4392H10.8567V5.63672H14.3481V24.7895H10.8567V16.8231H3.50254V24.7895H0.015625V5.63672Z" fill="#45535E"/>
<path d="M25.3952 18.5511C25.3952 20.1544 24.0982 21.4591 22.5067 21.4591C20.9146 21.4591 19.6185 20.1544 19.6185 18.5511V10.3052H16.3116V18.5511C16.3116 21.9912 19.0909 24.7894 22.5067 24.7894C25.9218 24.7894 28.7008 21.9912 28.7008 18.5511V10.3052H25.3952V18.5511Z" fill="#45535E"/>
<path d="M37.9304 10.4018C36.2901 10.4018 35.1451 10.8812 34.0394 11.9744V5.63672H30.7218V17.3822C30.7218 21.7786 33.8778 24.7895 37.4235 24.7895C41.3654 24.7895 44.8191 21.7249 44.8191 17.5958C44.8191 13.5191 41.6343 10.4018 37.9304 10.4018ZM38.0128 21.6983C35.7649 21.6983 34.0458 19.8074 34.0458 17.5958C34.0458 15.3838 35.7649 13.4923 38.0128 13.4923C39.9176 13.4923 41.6377 15.3838 41.6377 17.5958C41.6377 19.8074 39.9176 21.6983 38.0128 21.6983Z" fill="#45535E"/>
<path d="M50.3901 11.2436C50.3901 9.56395 51.5013 9.03142 52.7178 9.03142C53.6972 9.03142 54.9931 9.7774 55.8389 10.6835L58.0076 8.1259C56.9237 6.66069 54.7285 5.64795 52.9295 5.64795C49.3315 5.64795 46.739 7.75291 46.739 11.2436C46.739 17.7178 54.649 15.6656 54.649 19.29C54.649 20.4078 53.5647 21.3946 52.3221 21.3946C50.3638 21.3946 49.7286 20.4354 48.8295 19.4226L46.4218 21.9267C47.957 23.8186 49.861 24.7783 52.1363 24.7783C55.5486 24.7783 58.3 22.6467 58.3 19.3158C58.3 12.1224 50.3901 14.3607 50.3901 11.2436Z" fill="#45535E"/>
<path d="M67.0352 10.2141C63.4899 10.2141 60.3335 13.2232 60.3335 17.6206V29.3964H63.6509V23.0286C64.7568 24.121 65.9012 24.6012 67.5421 24.6012C71.2458 24.6012 74.431 21.4843 74.431 17.4076C74.431 13.2779 70.9763 10.2141 67.0352 10.2141ZM67.6247 21.511C65.3769 21.511 63.6577 19.6176 63.6577 17.4076C63.6577 15.1956 65.3769 13.3041 67.6247 13.3041C69.5291 13.3041 71.2493 15.1956 71.2493 17.4076C71.2493 19.6176 69.5291 21.511 67.6247 21.511Z" fill="#45535E"/>
<path d="M98.8503 21.6983C96.8936 21.6983 96.3381 20.8461 96.3381 19.54V13.7587H99.3797V10.8283H96.3381V6.9646L92.9795 8.48292V20.2595C92.9795 23.2705 95.0421 24.7894 97.8714 24.7894C98.2946 24.7894 98.8773 24.7619 99.1951 24.683L100.015 21.646C99.6449 21.6717 99.2218 21.6983 98.8503 21.6983Z" fill="#45535E"/>
<path d="M90.1032 13.929C89.4672 12.8269 88.5726 11.9434 87.4542 11.2783C86.6184 10.7883 85.7518 10.4773 84.7752 10.3437V6.84198C85.7518 6.42433 86.3579 5.49992 86.3579 4.42148C86.3579 2.95155 85.1875 1.76038 83.7292 1.76038C82.2697 1.76038 81.0788 2.95155 81.0788 4.42148C81.0788 5.49992 81.65 6.42433 82.6266 6.84198V10.3453C81.8453 10.459 81.0351 10.7043 80.2952 11.0812C78.784 9.92525 73.8286 6.13298 70.9298 3.91806C70.9986 3.66842 71.0515 3.4111 71.0515 3.13962C71.0515 1.51152 69.7425 0.191895 68.1254 0.191895C66.5083 0.191895 65.1998 1.51152 65.1998 3.13962C65.1998 4.76752 66.5097 6.08754 68.1268 6.08754C68.6783 6.08754 69.1885 5.92505 69.6288 5.65789L70.2405 6.12531L78.6465 12.2254C78.2021 12.6363 77.7882 13.1037 77.4572 13.6282C76.7862 14.6974 76.3762 15.8738 76.3762 17.157V17.4248C76.3762 18.3256 76.5462 19.176 76.8356 19.9749C77.0905 20.6725 77.4632 21.3068 77.9248 21.8802L75.135 24.6969C74.8875 24.6051 74.6275 24.5547 74.3562 24.5547C73.7523 24.5547 73.1858 24.7923 72.7587 25.2218C72.3311 25.6524 72.0969 26.2243 72.0969 26.833C72.0971 27.4414 72.3325 28.0133 72.7598 28.4435C73.187 28.874 73.7548 29.1112 74.3591 29.1112C74.9635 29.1112 75.5315 28.874 75.959 28.4435C76.3856 28.0133 76.6212 27.4412 76.6212 26.833C76.6212 26.5975 76.585 26.3677 76.5171 26.1493L79.4006 23.2447C79.796 23.5197 80.2229 23.7513 80.682 23.9509C81.5873 24.3452 82.5866 24.5854 83.6802 24.5854H83.8806C85.0896 24.5854 86.2301 24.2993 87.3022 23.7143C88.432 23.096 89.3162 22.2505 89.9842 21.171C90.6558 20.0886 91.0255 18.8928 91.0255 17.5771V17.5114C91.0255 16.2171 90.728 15.023 90.1032 13.929ZM86.5799 20.0222C85.7973 20.8982 84.8976 21.4378 83.8806 21.4378H83.713C83.1321 21.4378 82.5639 21.2761 82.0076 20.982C81.3806 20.6582 80.904 20.1963 80.514 19.6114C80.1108 19.0373 79.8921 18.4106 79.8921 17.746V17.5442C79.8921 16.8909 80.0165 16.2714 80.3302 15.6863C80.6655 15.0468 81.1185 14.5495 81.7209 14.154C82.3123 13.7614 82.944 13.5688 83.6475 13.5688H83.713C84.3509 13.5688 84.9549 13.6955 85.5248 13.9892C86.1055 14.3024 86.5799 14.7303 86.9477 15.2931C87.305 15.8561 87.5175 16.4634 87.5859 17.125C87.5966 17.2625 87.6021 17.4033 87.6021 17.5379C87.6021 18.4358 87.2614 19.2673 86.5799 20.0222Z" fill="#F8761F"/>
</svg>
