<svg width="18" height="17" viewBox="0 0 18 17" fill="none" xmlns="http://www.w3.org/2000/svg">
<path d="M8.50159 -0.000244141C3.81469 -0.000244141 0.00158691 3.81286 0.00158691 8.49976C0.00158691 13.1867 3.81469 16.9998 8.50159 16.9998C13.1885 16.9998 17.0016 13.1867 17.0016 8.49976C17.0016 3.81286 13.1885 -0.000244141 8.50159 -0.000244141ZM12.9111 8.73379L6.67777 12.9838C6.62989 13.0164 6.57407 13.0331 6.51825 13.0331C6.47292 13.0331 6.4273 13.0223 6.38594 13.0002C6.293 12.9512 6.23492 12.8549 6.23492 12.7498V4.24976C6.23492 4.14464 6.293 4.04831 6.38594 3.99929C6.47887 3.94999 6.59107 3.95679 6.67805 4.01572L12.9114 8.26572C12.9885 8.31842 13.0349 8.40597 13.0349 8.49976C13.0349 8.59354 12.9885 8.68109 12.9111 8.73379Z" fill="#5567FF"/>
</svg>
