<svg width="35" height="35" viewBox="0 0 35 35" fill="none" xmlns="http://www.w3.org/2000/svg">
<rect width="35" height="35" rx="5" fill="#7A41F8"/>
<path fill-rule="evenodd" clip-rule="evenodd" d="M18.9546 8V17.0363H28C27.9981 14.6387 27.0442 12.3401 25.348 10.6456C23.6518 8.95111 21.3522 7.99952 18.9546 8ZM17.0454 28C19.4444 28 21.7452 27.047 23.4416 25.3506C25.1379 23.6543 26.0909 21.3536 26.0909 18.9546H17.0454L17.0363 9.91817C15.849 9.91877 14.6736 10.1532 13.5769 10.6081C12.4803 11.063 11.4839 11.7295 10.6448 12.5694C9.80572 13.4094 9.14028 14.4063 8.68648 15.5034C8.23268 16.6006 7.9994 17.7764 8 18.9637C8.0006 20.151 8.23502 21.3264 8.68992 22.423C9.14482 23.5197 9.81131 24.5161 10.6513 25.3552C11.4912 26.1943 12.4882 26.8597 13.5853 27.3135C14.6824 27.7673 15.8581 28.0006 17.0454 28Z" fill="white"/>
</svg>
